<?xml version="1.0" encoding="utf-8"?>
<!-- Generator: Adobe Illustrator 25.0.0, SVG Export Plug-In . SVG Version: 6.00 Build 0)  -->
<svg version="1.1" id="Layer_1" xmlns="http://www.w3.org/2000/svg" xmlns:xlink="http://www.w3.org/1999/xlink" x="0px" y="0px"
	 viewBox="0 0 200 200" style="enable-background:new 0 0 200 200;" xml:space="preserve">
<style type="text/css">
	.st0{fill:#FFFFFF;}
</style>
<g>
	<g>
		
			<rect x="36.92" y="25.91" transform="matrix(0.7071 -0.7071 0.7071 0.7071 -16.9152 40.1225)" class="st0" width="6.11" height="29.15"/>
	</g>
	<g>
		
			<rect x="156.97" y="145.96" transform="matrix(0.7071 -0.7071 0.7071 0.7071 -66.642 160.1735)" class="st0" width="6.11" height="29.15"/>
	</g>
	<g>
		<rect x="0.54" y="97.47" class="st0" width="29.13" height="6.11"/>
	</g>
	<g>
		<rect x="170.33" y="97.47" class="st0" width="29.13" height="6.11"/>
	</g>
	<g>
		<path class="st0" d="M149.39,100.52c0,13.64-5.53,25.99-14.45,34.92c-8.92,8.92-21.27,14.45-34.92,14.45s-25.99-5.53-34.95-14.45
			c-8.92-8.92-14.45-21.27-14.45-34.92s5.53-25.99,14.45-34.92h0.04c8.96-8.96,21.27-14.49,34.92-14.49
			c13.61,0,25.96,5.53,34.88,14.49h0.04C143.86,74.53,149.39,86.88,149.39,100.52z"/>
	</g>
	<g>
		
			<rect x="25.4" y="157.48" transform="matrix(0.7071 -0.7071 0.7071 0.7071 -101.8042 75.2846)" class="st0" width="29.15" height="6.11"/>
	</g>
	<g>
		
			<rect x="145.45" y="37.43" transform="matrix(0.7071 -0.7071 0.7071 0.7071 18.2469 125.0114)" class="st0" width="29.15" height="6.11"/>
	</g>
	<g>
		<rect x="96.96" y="170.84" class="st0" width="6.11" height="29.16"/>
	</g>
	<g>
		<rect x="96.96" y="1.05" class="st0" width="6.11" height="29.13"/>
	</g>
</g>
</svg>
